<?xml version="1.0" encoding="UTF-8"?>
<svg version="1.1" xmlns="http://www.w3.org/2000/svg" width="1024" height="559">
<path d="M0 0 C337.92 0 675.84 0 1024 0 C1024 184.47 1024 368.94 1024 559 C686.08 559 348.16 559 0 559 C0 374.53 0 190.06 0 0 Z " fill="#FEFEFE" transform="translate(0,0)"/>
<path d="M0 0 C1.13894714 -0.01022186 2.27789429 -0.02044373 3.45135498 -0.03097534 C7.21143694 -0.05874557 10.97078479 -0.0568556 14.73095703 -0.05224609 C17.34880851 -0.06002139 19.96665748 -0.06869102 22.58450317 -0.07821655 C28.07039887 -0.09462416 33.55608849 -0.09283928 39.04199219 -0.08203125 C45.3691042 -0.06995689 51.69532612 -0.09456542 58.0222863 -0.13717139 C64.12525864 -0.17674686 70.22781691 -0.18273974 76.33090591 -0.17570114 C78.92002578 -0.17672679 81.50915999 -0.18718778 84.09820175 -0.20732498 C87.72241123 -0.23205347 91.3445723 -0.21847437 94.96875 -0.1953125 C96.03394867 -0.21059998 97.09914734 -0.22588745 98.19662476 -0.24163818 C104.24332683 -0.15640183 108.07256598 0.75966106 112.88253975 4.48174477 C117.70378963 10.239663 119.20831031 15.77686353 119.1217041 23.16418457 C119.12794406 23.99433657 119.13418403 24.82448857 119.14061308 25.6797967 C119.15647816 28.44193682 119.14396454 31.20318647 119.13134766 33.96533203 C119.13677166 35.95351168 119.14389588 37.9416873 119.15258789 39.92985535 C119.17079095 45.31621126 119.16376608 50.70226 119.15107155 56.08862114 C119.14092831 61.73165577 119.15034091 67.37466451 119.15661621 73.0177002 C119.16388874 82.49329336 119.1543152 91.96876173 119.13525391 101.44433594 C119.113486 112.39165896 119.12053764 123.33868397 119.14255953 134.28599977 C119.1607247 143.69345283 119.16326636 153.1008163 119.15280485 162.50828123 C119.1465761 168.1233124 119.14571737 173.73820359 119.15895081 179.35322571 C119.17052486 184.63272836 119.16245489 189.91184764 119.13937378 195.19130898 C119.13409504 197.12624285 119.13558614 199.0612091 119.14442444 200.99612999 C119.15539661 203.64266828 119.14159663 206.28798712 119.1217041 208.93444824 C119.13062699 209.69555106 119.13954988 210.45665387 119.14874315 211.24082041 C119.06089205 217.28895199 117.36568889 222.56265357 113.20193529 227.08158255 C108.79794501 230.95752119 104.57518809 232.78812644 98.74517822 232.8302002 C97.79209778 232.84162048 96.83901733 232.85304077 95.85705566 232.86480713 C94.82318726 232.86704285 93.78931885 232.86927856 92.72412109 232.87158203 C91.07685028 232.88647675 91.07685028 232.88647675 89.39630127 232.90167236 C85.76564012 232.93086609 82.13515374 232.9445113 78.50439453 232.95556641 C75.97719316 232.9670736 73.44999183 232.97858901 70.92279053 232.9901123 C66.30035716 233.00843525 61.67797603 233.02104139 57.05551553 233.02710581 C50.27026389 233.03605879 43.48581975 233.07112433 36.70081353 233.129107 C30.80778585 233.17770365 24.91495729 233.19300181 19.02172089 233.19645691 C16.52271886 233.20249956 14.02371981 233.2185217 11.52484894 233.24482727 C8.0229479 233.27905964 4.52299801 233.27516299 1.02099609 233.26220703 C-0.00477539 233.2806366 -1.03054688 233.29906616 -2.08740234 233.3180542 C-9.12748998 233.23674155 -14.33176305 231.63654053 -19.38623047 226.54931641 C-23.13712442 221.18985889 -23.97022308 217.35922841 -23.90762329 210.90284729 C-23.91909993 209.63439961 -23.91909993 209.63439961 -23.93080842 208.34032673 C-23.95137008 205.51984105 -23.94350381 202.70017717 -23.93554688 199.87963867 C-23.94424532 197.85219574 -23.95461302 195.82475938 -23.96652222 193.79733276 C-23.9932787 188.29937734 -23.99446236 182.80169708 -23.98939562 177.30368924 C-23.98725477 172.71118299 -23.99702648 168.11873225 -24.00660646 163.52623791 C-24.02878828 152.6910336 -24.02967612 141.85596797 -24.01757812 131.02075195 C-24.00549483 119.8478443 -24.03013157 108.67544013 -24.07271826 97.50261837 C-24.10795717 87.90409752 -24.11995202 78.30573689 -24.11344278 68.70715374 C-24.1098181 62.97688188 -24.11507897 57.24696927 -24.14287186 51.51675606 C-24.16803143 46.12797946 -24.16413903 40.7399876 -24.13805008 35.35122299 C-24.13332005 33.37596687 -24.13878284 31.40065548 -24.15529633 29.42546272 C-24.28540339 12.65111857 -24.28540339 12.65111857 -20.71469116 7.56187439 C-19.04994965 5.8979845 -19.04994965 5.8979845 -17.38623047 4.54931641 C-16.50732147 3.73564606 -15.62841248 2.92197571 -14.72286987 2.08364868 C-9.82158011 -0.17017805 -5.33597396 -0.02472662 0 0 Z " fill="#FBFBFB" transform="translate(530.38623046875,156.45068359375)"/>
<path d="M0 0 C1.41098717 -0.01062721 1.41098717 -0.01062721 2.85047913 -0.02146912 C4.38804871 -0.01775299 4.38804871 -0.01775299 5.9566803 -0.01396179 C7.04163284 -0.01907272 8.12658539 -0.02418365 9.24441528 -0.02944946 C12.83483886 -0.04336227 16.42507085 -0.04238743 20.01551819 -0.04008484 C22.50889152 -0.04397075 25.00226418 -0.0483052 27.49563599 -0.05307007 C32.72355278 -0.06053585 37.95141989 -0.06037643 43.17933655 -0.05497742 C48.55017785 -0.04960494 53.92083069 -0.05665077 59.29164124 -0.07548523 C65.77368695 -0.09792673 72.25557513 -0.10574033 78.73765755 -0.10181236 C81.20922455 -0.10232624 83.68079522 -0.10757631 86.15234184 -0.11762428 C89.60683579 -0.12994469 93.06078892 -0.123223 96.51527405 -0.11161804 C97.5382962 -0.11926178 98.56131836 -0.12690552 99.61534119 -0.13478088 C108.32422709 -0.07003443 108.32422709 -0.07003443 112.30067444 3.26069641 C115.90113045 7.6066722 116.80550711 10.59920637 116.79676819 16.19819641 C116.79741272 17.50530579 116.79805725 18.81241516 116.79872131 20.15913391 C116.78832825 20.83299133 116.77793518 21.50684875 116.76722717 22.2011261 C116.7382455 24.25565885 116.74663915 26.30760889 116.75965881 28.36225891 C116.68708109 39.68438337 116.68708109 39.68438337 113.30067444 45.26069641 C110.04108375 48.01323966 108.20205162 49.19392773 103.92567444 49.51069641 C103.05942444 49.42819641 102.19317444 49.34569641 101.30067444 49.26069641 C101.32387756 50.03155579 101.34708069 50.80241516 101.37098694 51.59663391 C101.38903381 52.59952454 101.40708069 53.60241516 101.42567444 54.63569641 C101.44887756 55.63343079 101.47208069 56.63116516 101.49598694 57.65913391 C101.30067444 60.26069641 101.30067444 60.26069641 99.30067444 62.26069641 C96.80067444 62.51069641 96.80067444 62.51069641 94.30067444 62.26069641 C93.64067444 61.60069641 92.98067444 60.94069641 92.30067444 60.26069641 C92.30067444 56.63069641 92.30067444 53.00069641 92.30067444 49.26069641 C65.57067444 49.26069641 38.84067444 49.26069641 11.30067444 49.26069641 C11.30067444 55.86069641 11.30067444 62.46069641 11.30067444 69.26069641 C6.4967824 82.07107519 -2.47706878 88.70267102 -12.69932556 97.26069641 C-22.07435181 105.1812255 -26.90077478 111.43364175 -28.23765564 123.94136047 C-28.32493423 124.7505896 -28.41221283 125.55981873 -28.50213623 126.39356995 C-28.56720871 127.00972168 -28.63228119 127.62587341 -28.69932556 128.26069641 C-27.87104752 128.25181396 -27.04276947 128.24293152 -26.18939209 128.23377991 C-18.37673455 128.15357146 -10.56421565 128.09270035 -2.75124073 128.05344772 C1.26534808 128.03258888 5.28159617 128.0043031 9.29798889 127.9589386 C13.17539116 127.91541895 17.05246608 127.89154649 20.93009377 127.88118744 C22.4080807 127.87380695 23.88605007 127.85939427 25.36389732 127.83777618 C27.43720835 127.8086588 29.50917367 127.80474358 31.58265686 127.80659485 C32.76180161 127.7977124 33.94094635 127.78882996 35.15582275 127.77967834 C38.94750808 128.35963229 40.58664559 129.60494171 43.30067444 132.26069641 C44.47943449 134.61821651 44.43646086 136.04529965 44.45457458 138.67481995 C44.46317505 139.60286942 44.47177551 140.53091888 44.4806366 141.48709106 C44.48489655 142.50840622 44.48915649 143.52972137 44.49354553 144.58198547 C44.50581177 146.19193642 44.50581177 146.19193642 44.51832581 147.83441162 C44.54320741 151.39837582 44.55970297 154.96230011 44.57411194 158.52632141 C44.57943562 159.74161278 44.58475929 160.95690414 44.59024429 162.20902252 C44.6169879 168.64144257 44.63635895 175.07384312 44.65077209 181.50630188 C44.66742267 188.15566707 44.71220111 194.80452481 44.76314354 201.45372391 C44.79677486 206.56152425 44.8083451 211.66920644 44.81399918 216.77710724 C44.82072299 219.22834305 44.83597411 221.67957079 44.85988998 224.13069916 C44.89145435 227.56148816 44.89159066 230.99093356 44.88417053 234.42182922 C44.90057587 235.43504745 44.9169812 236.44826569 44.93388367 237.4921875 C44.89361757 242.03906328 44.81275587 245.24976101 41.88920593 248.87562561 C38.05994787 252.40390086 36.23309131 252.38411807 31.10682678 252.3742218 C29.80562897 252.37414627 28.50443115 252.37407074 27.1638031 252.37399292 C25.73807233 252.36888588 24.31234194 252.36366988 22.88661194 252.35835266 C21.43215483 252.35648788 19.9776971 252.35506426 18.52323914 252.35406494 C14.69274668 252.35024446 10.86229207 252.34041817 7.03181458 252.32936096 C3.1240439 252.31913676 -0.78373287 252.31456516 -4.69151306 252.30952454 C-12.36080116 252.2987955 -20.03005806 252.28172469 -27.69932556 252.26069641 C-27.64732686 256.63665602 -27.55221495 261.01066081 -27.44932556 265.38569641 C-27.43514587 266.62319641 -27.42096619 267.86069641 -27.40635681 269.13569641 C-27.33540377 278.01532402 -27.33540377 278.01532402 -22.69932556 285.26069641 C-16.8511285 289.93637123 -12.12723698 290.98278725 -4.75083923 290.87251282 C-3.30791 290.88101006 -3.30791 290.88101006 -1.83583069 290.88967896 C1.32075319 290.90310533 4.4761733 290.88229487 7.63270569 290.86225891 C9.83369735 290.86776118 12.03468388 290.87588766 14.23565674 290.88652039 C20.01314544 290.90936143 25.79025502 290.90519884 31.56776428 290.89271545 C40.83244434 290.87437366 50.09690518 290.88428062 59.36153221 290.91857529 C62.59848037 290.92469421 65.83495775 290.91140505 69.0718689 290.89659119 C71.04763411 290.89953768 73.02339843 290.90319146 74.99916077 290.90766907 C75.90152969 290.89837875 76.80389862 290.88908844 77.73361206 290.8795166 C78.55917603 290.88482895 79.38473999 290.8901413 80.23532104 290.89561462 C80.95222516 290.8937295 81.66912928 290.89184437 82.40775776 290.88990211 C84.88428196 291.37501647 85.80171847 292.26104349 87.30067444 294.26069641 C86.87962181 298.68174904 86.87962181 298.68174904 85.30067444 300.26069641 C82.1877578 300.38274595 79.09666991 300.43937127 75.9825592 300.4535675 C75.00361191 300.461745 74.02466461 300.46992249 73.01605225 300.47834778 C69.75806802 300.50327037 66.50012777 300.51974087 63.24208069 300.53413391 C62.13015791 300.53945759 61.01823513 300.54478127 59.87261772 300.55026627 C53.98023543 300.5770356 48.08787453 300.59639292 42.19544983 300.61079407 C36.11925595 300.62739431 30.0436095 300.67212282 23.9676218 300.72316551 C19.28943289 300.7569046 14.61137234 300.76837925 9.93307304 300.77402115 C7.69447109 300.7807219 5.45587722 300.79591313 3.21739388 300.81991196 C0.07226463 300.85168966 -3.07141053 300.85158017 -6.21665955 300.8441925 C-7.13291107 300.86059784 -8.0491626 300.87700317 -8.99317932 300.89390564 C-16.92122392 300.81814933 -23.18863797 298.12784515 -29.32041931 293.12007141 C-29.91983337 292.42397766 -30.51924744 291.72788391 -31.13682556 291.01069641 C-31.7542865 290.32491516 -32.37174744 289.63913391 -33.00791931 288.93257141 C-38.37532688 280.45380287 -38.13019219 271.4248074 -38.08750916 261.7101593 C-38.09158033 260.14871861 -38.09692526 258.5872808 -38.10343933 257.02584839 C-38.11705504 252.80676362 -38.11183787 248.58790023 -38.10230207 244.36881185 C-38.09467422 239.93989953 -38.10175986 235.51100539 -38.10646057 231.08209229 C-38.11190962 223.64525472 -38.10474948 216.20850669 -38.09043884 208.77168274 C-38.07411997 200.19255454 -38.07939871 191.61364035 -38.09591806 183.03451735 C-38.1095644 175.64993342 -38.11143706 168.26541364 -38.10360205 160.88082117 C-38.09894203 156.47859757 -38.09825433 152.0764743 -38.10821152 147.67425728 C-38.11692465 143.53319171 -38.11078056 139.39239997 -38.09352875 135.25136375 C-38.08958673 133.73814471 -38.09065844 132.22490234 -38.09731674 130.71169281 C-38.14694344 118.27999465 -36.70432142 107.22640028 -28.69932556 97.26069641 C-22.02897891 90.61449382 -14.36925766 84.85762927 -6.88291931 79.17475891 C-1.9621384 74.86137314 0.50147846 72.49139805 1.00770569 65.86225891 C1.06705841 63.87064543 1.10160529 61.8781605 1.11317444 59.88569641 C1.13831116 58.86346985 1.16344788 57.84124329 1.18934631 56.78804016 C1.24797953 54.27853829 1.28443315 51.770771 1.30067444 49.26069641 C0.37770569 49.30710266 -0.54526306 49.35350891 -1.49620056 49.40132141 C-5.95811593 49.20543244 -7.60091575 47.35910622 -10.69932556 44.26069641 C-14.10699472 39.15859014 -13.07123536 32.52135304 -13.06993103 26.61665344 C-13.07429825 24.39955983 -13.11062184 22.18446858 -13.14854431 19.96772766 C-13.1544145 18.5471615 -13.15838254 17.12658595 -13.16026306 15.70600891 C-13.16848083 14.42226379 -13.17669861 13.13851868 -13.18516541 11.81587219 C-12.61076065 7.61261492 -11.40411151 5.4994234 -8.69932556 2.26069641 C-5.72805247 0.40890394 -3.47422634 0.00874309 0 0 Z " fill="#8D8D8C" transform="translate(412.69932556152344,88.73930358886719)"/>
<path d="M0 0 C10.20620294 7.21771999 15.84321141 16.65463424 19.75 28.375 C21.17939034 44.41374538 19.13021199 58.52800759 8.75 71.375 C-3.55813631 83.14886029 -15.50121135 86.10015778 -32.09375 85.75 C-44.40694736 85.12541753 -53.79107033 78.31869165 -62 69.5625 C-71.70459978 57.94400003 -73.25523784 44.93385273 -72.25 30.375 C-70.69957262 19.52200833 -63.71565408 9.18172793 -55.25 2.375 C-37.66188068 -10.1146765 -18.51546366 -11.43329881 0 0 Z " fill="#FCFCFC" transform="translate(602.25,233.625)"/>
<path d="M0 0 C21.12 0 42.24 0 64 0 C64 34.98 64 69.96 64 106 C42.88 106 21.76 106 0 106 C0 71.02 0 36.04 0 0 Z " fill="#FCFCFC" transform="translate(384,226)"/>
<path d="M0 0 C1.13894714 -0.01022186 2.27789429 -0.02044373 3.45135498 -0.03097534 C7.21143694 -0.05874557 10.97078479 -0.0568556 14.73095703 -0.05224609 C17.34880851 -0.06002139 19.96665748 -0.06869102 22.58450317 -0.07821655 C28.07039887 -0.09462416 33.55608849 -0.09283928 39.04199219 -0.08203125 C45.3691042 -0.06995689 51.69532612 -0.09456542 58.0222863 -0.13717139 C64.12525864 -0.17674686 70.22781691 -0.18273974 76.33090591 -0.17570114 C78.92002578 -0.17672679 81.50915999 -0.18718778 84.09820175 -0.20732498 C87.72241123 -0.23205347 91.3445723 -0.21847437 94.96875 -0.1953125 C96.03394867 -0.21059998 97.09914734 -0.22588745 98.19662476 -0.24163818 C104.24332683 -0.15640183 108.07256598 0.75966106 112.88253975 4.48174477 C117.70378963 10.239663 119.20831031 15.77686353 119.1217041 23.16418457 C119.12794406 23.99433657 119.13418403 24.82448857 119.14061308 25.6797967 C119.15647816 28.44193682 119.14396454 31.20318647 119.13134766 33.96533203 C119.13677166 35.95351168 119.14389588 37.9416873 119.15258789 39.92985535 C119.17079095 45.31621126 119.16376608 50.70226 119.15107155 56.08862114 C119.14092831 61.73165577 119.15034091 67.37466451 119.15661621 73.0177002 C119.16388874 82.49329336 119.1543152 91.96876173 119.13525391 101.44433594 C119.113486 112.39165896 119.12053764 123.33868397 119.14255953 134.28599977 C119.1607247 143.69345283 119.16326636 153.1008163 119.15280485 162.50828123 C119.1465761 168.1233124 119.14571737 173.73820359 119.15895081 179.35322571 C119.17052486 184.63272836 119.16245489 189.91184764 119.13937378 195.19130898 C119.13409504 197.12624285 119.13558614 199.0612091 119.14442444 200.99612999 C119.15539661 203.64266828 119.14159663 206.28798712 119.1217041 208.93444824 C119.13062699 209.69555106 119.13954988 210.45665387 119.14874315 211.24082041 C119.06089205 217.28895199 117.36568889 222.56265357 113.20193529 227.08158255 C108.79794501 230.95752119 104.57518809 232.78812644 98.74517822 232.8302002 C97.79209778 232.84162048 96.83901733 232.85304077 95.85705566 232.86480713 C94.82318726 232.86704285 93.78931885 232.86927856 92.72412109 232.87158203 C91.07685028 232.88647675 91.07685028 232.88647675 89.39630127 232.90167236 C85.76564012 232.93086609 82.13515374 232.9445113 78.50439453 232.95556641 C75.97719316 232.9670736 73.44999183 232.97858901 70.92279053 232.9901123 C66.30035716 233.00843525 61.67797603 233.02104139 57.05551553 233.02710581 C50.27026389 233.03605879 43.48581975 233.07112433 36.70081353 233.129107 C30.80778585 233.17770365 24.91495729 233.19300181 19.02172089 233.19645691 C16.52271886 233.20249956 14.02371981 233.2185217 11.52484894 233.24482727 C8.0229479 233.27905964 4.52299801 233.27516299 1.02099609 233.26220703 C-0.00477539 233.2806366 -1.03054688 233.29906616 -2.08740234 233.3180542 C-9.12748998 233.23674155 -14.33176305 231.63654053 -19.38623047 226.54931641 C-23.13712442 221.18985889 -23.97022308 217.35922841 -23.90762329 210.90284729 C-23.91909993 209.63439961 -23.91909993 209.63439961 -23.93080842 208.34032673 C-23.95137008 205.51984105 -23.94350381 202.70017717 -23.93554688 199.87963867 C-23.94424532 197.85219574 -23.95461302 195.82475938 -23.96652222 193.79733276 C-23.9932787 188.29937734 -23.99446236 182.80169708 -23.98939562 177.30368924 C-23.98725477 172.71118299 -23.99702648 168.11873225 -24.00660646 163.52623791 C-24.02878828 152.6910336 -24.02967612 141.85596797 -24.01757812 131.02075195 C-24.00549483 119.8478443 -24.03013157 108.67544013 -24.07271826 97.50261837 C-24.10795717 87.90409752 -24.11995202 78.30573689 -24.11344278 68.70715374 C-24.1098181 62.97688188 -24.11507897 57.24696927 -24.14287186 51.51675606 C-24.16803143 46.12797946 -24.16413903 40.7399876 -24.13805008 35.35122299 C-24.13332005 33.37596687 -24.13878284 31.40065548 -24.15529633 29.42546272 C-24.28540339 12.65111857 -24.28540339 12.65111857 -20.71469116 7.56187439 C-19.04994965 5.8979845 -19.04994965 5.8979845 -17.38623047 4.54931641 C-16.50732147 3.73564606 -15.62841248 2.92197571 -14.72286987 2.08364868 C-9.82158011 -0.17017805 -5.33597396 -0.02472662 0 0 Z M-13.38623047 13.54931641 C-14.9422622 16.66137987 -14.53792822 19.96365428 -14.54013062 23.38018799 C-14.54451287 24.19845747 -14.54889512 25.01672695 -14.55341017 25.85979247 C-14.56682545 28.61730532 -14.57298314 31.37478619 -14.57910156 34.13232422 C-14.58700037 36.10315598 -14.59526918 38.07398629 -14.60388184 40.04481506 C-14.63012725 46.53067641 -14.64541186 53.0165443 -14.65966797 59.50244141 C-14.66502659 61.73296869 -14.67040409 63.96349594 -14.67580032 66.19402313 C-14.69743262 75.47072413 -14.71617025 84.74742337 -14.72742271 94.02414322 C-14.74366738 107.33020419 -14.77685389 120.63597338 -14.83382356 133.94192433 C-14.87249237 143.29145035 -14.89205178 152.64089822 -14.89734328 161.99050212 C-14.90100088 167.57769591 -14.91306576 173.16457869 -14.94544601 178.7516861 C-14.97547266 184.00812394 -14.98185766 189.26406169 -14.97006226 194.52056694 C-14.96984107 196.44991098 -14.97818324 198.37927786 -14.99571609 200.30854225 C-15.01835563 202.94313579 -15.01013768 205.57590796 -14.99423218 208.21051025 C-15.00811427 208.97374957 -15.02199635 209.73698889 -15.03629911 210.52335668 C-14.95033566 216.30368573 -13.35609022 218.64954728 -9.38623047 222.54931641 C-7.0453561 223.71975359 -5.65701127 223.6824483 -3.04803467 223.69648743 C-1.68120293 223.70722038 -1.68120293 223.70722038 -0.28675842 223.71817017 C1.21716209 223.72220352 1.21716209 223.72220352 2.75146484 223.72631836 C4.33215508 223.73617516 4.33215508 223.73617516 5.94477844 223.74623108 C9.4438178 223.7659958 12.94281418 223.7776339 16.44189453 223.78759766 C17.63512077 223.79167318 18.82834702 223.79574871 20.05773163 223.79994774 C26.37344694 223.82082223 32.68914044 223.83511787 39.00488281 223.84448242 C45.5331089 223.85554842 52.06099428 223.88994702 58.58909988 223.92965412 C63.60425455 223.95578334 68.61932762 223.96417101 73.63454437 223.9677639 C76.04110769 223.97263956 78.44766713 223.98428122 80.85416412 224.0028019 C84.22255027 224.02711339 87.59004932 224.02624245 90.95849609 224.01928711 C91.95301285 224.03209717 92.9475296 224.04490723 93.97218323 224.05810547 C99.66048093 224.01528869 103.20634441 223.52941634 107.61376953 219.54931641 C110.18609845 215.84335033 109.89606501 211.88621826 109.87446594 207.5471344 C109.87829149 206.73461761 109.88211704 205.92210082 109.88605851 205.08496231 C109.89638776 202.35890344 109.89239651 199.63305523 109.88842773 196.90698242 C109.89277424 194.95393682 109.89795718 193.00089292 109.90391541 191.04785156 C109.91732301 185.74005158 109.91788213 180.43232272 109.91535211 175.1245091 C109.91428362 170.69591889 109.9191626 166.26734314 109.92395753 161.83875602 C109.93505873 151.39257443 109.93548662 140.94642879 109.92944336 130.50024414 C109.92340153 119.71772654 109.93571853 108.93533936 109.95701343 98.15284401 C109.97461633 88.9000994 109.98063287 79.64739636 109.97737569 70.39463562 C109.97556065 64.86628579 109.97822102 59.33802899 109.99209023 53.80969429 C110.00464266 48.61158341 110.00274895 43.4136762 109.98967934 38.21556854 C109.98730839 36.30678426 109.9900667 34.39798575 109.99830246 32.48921776 C110.00872785 29.88540127 110.00070331 27.28227349 109.98799133 24.67848206 C109.99905276 23.54297302 109.99905276 23.54297302 110.01033765 22.38452441 C109.96463111 17.94052824 109.44991034 15.0265924 106.61376953 11.54931641 C103.73278812 9.58053452 101.39814917 9.29617769 97.95240784 9.28189087 C97.02016388 9.2733609 96.08791992 9.26483093 95.12742615 9.25604248 C93.60388268 9.25740204 93.60388268 9.25740204 92.04956055 9.25878906 C90.97436157 9.25207184 89.8991626 9.24535461 88.79138184 9.23843384 C85.23343295 9.21941949 81.67567232 9.21552804 78.11767578 9.21337891 C75.64672263 9.20695398 73.17577026 9.20022585 70.70481873 9.19320679 C65.52397904 9.18122584 60.34320608 9.17752687 55.16235352 9.17871094 C48.5197217 9.17891431 41.87751686 9.1515967 35.23498631 9.11716652 C30.13150563 9.09494468 25.02812853 9.09087194 19.92460442 9.09193039 C17.47535669 9.08956792 15.02610639 9.08070825 12.5769062 9.06526566 C9.15342282 9.04569942 5.730871 9.05140734 2.30737305 9.06347656 C0.78686592 9.04661804 0.78686592 9.04661804 -0.76435852 9.02941895 C-6.21639156 9.07833216 -9.51748276 9.27108325 -13.38623047 13.54931641 Z " fill="#8D8D8C" transform="translate(530.38623046875,156.45068359375)"/>
<path d="M0 0 C1.17886858 0.00081715 1.17886858 0.00081715 2.3815527 0.00165081 C3.28317135 -0.00254368 4.18479 -0.00673817 5.11373043 -0.01105976 C6.60138157 -0.0026305 6.60138157 -0.0026305 8.11908627 0.00596905 C9.16140408 0.0040707 10.20372189 0.00217236 11.27762508 0.00021648 C14.73584074 -0.00349959 18.19384814 0.0072241 21.65204525 0.01842022 C24.04575736 0.01961157 26.43946994 0.02006528 28.83318233 0.01980877 C33.85445734 0.02137503 38.87566119 0.02967614 43.8969183 0.04307842 C50.34927473 0.06007759 56.80155294 0.06389259 63.25392914 0.06313324 C68.19768178 0.06340451 73.14141715 0.06887856 78.08516407 0.07613468 C80.46513329 0.07932779 82.84510447 0.08129024 85.22507572 0.08202839 C88.54394685 0.08418466 91.8627332 0.0929131 95.18158627 0.1036253 C96.17537792 0.10317211 97.16916958 0.10271893 98.19307613 0.10225201 C99.09187496 0.10651699 99.99067379 0.11078197 100.91670895 0.1151762 C102.09501199 0.11768997 102.09501199 0.11768997 103.29711914 0.12025452 C105.085639 0.24888897 105.085639 0.24888897 106.085639 1.24888897 C106.3397945 5.88904222 106.27086698 10.54010203 106.273139 15.18638897 C106.28538509 16.50058819 106.29763119 17.81478741 106.31024837 19.16881084 C106.31218197 20.42113506 106.31411556 21.67345928 106.31610775 22.96373272 C106.32021664 24.11994122 106.32432552 25.27614971 106.32855892 26.46739483 C106.085639 29.24888897 106.085639 29.24888897 104.085639 31.24888897 C102.18968868 31.50057125 102.18968868 31.50057125 99.8344183 31.50285625 C98.94265896 31.5084959 98.05089962 31.51413555 97.13211727 31.5199461 C95.66084881 31.51387341 95.66084881 31.51387341 94.15985775 31.50767803 C92.61342083 31.51293499 92.61342083 31.51293499 91.03574276 31.51829815 C87.61480712 31.52712834 84.19407689 31.52126172 80.773139 31.51451397 C78.40424211 31.51586025 76.03534549 31.51780047 73.66644955 31.52031231 C68.69645214 31.52326532 63.72652652 31.51896021 58.75653744 31.50963116 C52.37374311 31.49823658 45.99111697 31.5047951 39.60832882 31.51677608 C34.71514262 31.52398988 29.82199655 31.52170896 24.92880917 31.5165205 C22.57478471 31.51518267 20.22075666 31.51683634 17.86673641 31.52147961 C14.58153231 31.52653692 11.29660373 31.51884569 8.01142025 31.50767803 C7.03057461 31.51172649 6.04972897 31.51577496 5.03916073 31.5199461 C4.14740139 31.51430645 3.25564205 31.5086668 2.3368597 31.50285625 C1.55962048 31.5021022 0.78238125 31.50134815 -0.01841068 31.50057125 C-1.914361 31.24888897 -1.914361 31.24888897 -3.914361 29.24888897 C-4.17315006 26.57506084 -4.17315006 26.57506084 -4.179986 23.21763897 C-4.18256413 22.01494366 -4.18514225 20.81224834 -4.1877985 19.57310772 C-4.18006413 18.31111553 -4.17232975 17.04912334 -4.164361 15.74888897 C-4.17209538 14.48689678 -4.17982975 13.22490459 -4.1877985 11.92467022 C-4.18522038 10.72197491 -4.18264225 9.51927959 -4.179986 8.28013897 C-4.17773014 7.17218975 -4.17547428 6.06424053 -4.17315006 4.92271709 C-3.86834858 1.77348515 -3.28862037 0.42755851 0 0 Z " fill="#FDFDFD" transform="translate(412.91436100006104,97.75111103057861)"/>
<path d="M0 0 C10.20620294 7.21771999 15.84321141 16.65463424 19.75 28.375 C21.17939034 44.41374538 19.13021199 58.52800759 8.75 71.375 C-3.55813631 83.14886029 -15.50121135 86.10015778 -32.09375 85.75 C-44.40694736 85.12541753 -53.79107033 78.31869165 -62 69.5625 C-71.70459978 57.94400003 -73.25523784 44.93385273 -72.25 30.375 C-70.69957262 19.52200833 -63.71565408 9.18172793 -55.25 2.375 C-37.66188068 -10.1146765 -18.51546366 -11.43329881 0 0 Z M-55.25 15.375 C-62.3833432 25.06335019 -64.43753245 34.42387556 -63.25 46.375 C-60.7128348 57.23800828 -55.25410572 65.16531175 -46.15234375 71.546875 C-36.0565909 77.34237032 -26.02408378 78.38206334 -14.78515625 75.48046875 C-4.63807516 71.65452014 3.40240215 64.70579176 7.9375 54.8125 C11.55358626 46.49982361 12.33901106 36.36054944 9.99609375 27.53515625 C9.04794522 25.35999198 8.00350653 23.38755028 6.75 21.375 C6.151875 20.34375 5.55375 19.3125 4.9375 18.25 C-1.00240367 10.44326946 -8.27285759 4.15150557 -18.25 2.375 C-33.48409974 1.33901328 -44.61925896 3.45963351 -55.25 15.375 Z " fill="#8E8E8E" transform="translate(602.25,233.625)"/>
<path d="M0 0 C1.17433594 0.01417969 2.34867188 0.02835938 3.55859375 0.04296875 C5.32396484 0.05263672 5.32396484 0.05263672 7.125 0.0625 C9.99609375 0.23046875 9.99609375 0.23046875 10.99609375 1.23046875 C11.08241249 2.57314288 11.10315848 3.92021197 11.09375 5.265625 C11.09052734 6.07451172 11.08730469 6.88339844 11.08398438 7.71679688 C11.07141602 8.99200195 11.07141602 8.99200195 11.05859375 10.29296875 C11.05408203 11.14697266 11.04957031 12.00097656 11.04492188 12.88085938 C11.03309748 14.99742538 11.01516144 17.1139556 10.99609375 19.23046875 C12.28386719 19.21886719 13.57164062 19.20726562 14.8984375 19.1953125 C16.57682147 19.18593605 18.25520701 19.1768357 19.93359375 19.16796875 C21.20879883 19.15540039 21.20879883 19.15540039 22.50976562 19.14257812 C23.31865234 19.13935547 24.12753906 19.13613281 24.9609375 19.1328125 C25.70980225 19.12757568 26.45866699 19.12233887 27.23022461 19.11694336 C28.99609375 19.23046875 28.99609375 19.23046875 29.99609375 20.23046875 C30.06881116 22.5836043 30.07980243 24.93880543 30.05859375 27.29296875 C30.04957031 28.58332031 30.04054688 29.87367188 30.03125 31.203125 C30.01964844 32.20214844 30.00804687 33.20117188 29.99609375 34.23046875 C26.68614662 35.88544231 23.00486375 35.3313121 19.37109375 35.29296875 C18.56929687 35.28845703 17.7675 35.28394531 16.94140625 35.27929688 C14.95960369 35.26750043 12.97783942 35.2495648 10.99609375 35.23046875 C11.00769531 36.51824219 11.01929688 37.80601562 11.03125 39.1328125 C11.04062645 40.81119647 11.0497268 42.48958201 11.05859375 44.16796875 C11.06697266 45.01810547 11.07535156 45.86824219 11.08398438 46.74414062 C11.08720703 47.55302734 11.09042969 48.36191406 11.09375 49.1953125 C11.09898682 49.94417725 11.10422363 50.69304199 11.10961914 51.46459961 C10.99609375 53.23046875 10.99609375 53.23046875 9.99609375 54.23046875 C7.85301479 54.35584616 5.70530489 54.40621239 3.55859375 54.41796875 C1.79708984 54.43923828 1.79708984 54.43923828 0 54.4609375 C-3.00390625 54.23046875 -3.00390625 54.23046875 -5.00390625 52.23046875 C-5.14908369 49.32111295 -5.19021421 46.51052275 -5.12890625 43.60546875 C-5.11988281 42.80367188 -5.11085938 42.001875 -5.1015625 41.17578125 C-5.07796848 39.19388352 -5.0420969 37.21213894 -5.00390625 35.23046875 C-6.20789063 35.25367188 -7.411875 35.276875 -8.65234375 35.30078125 C-10.2278584 35.31953738 -11.80337973 35.33773774 -13.37890625 35.35546875 C-14.17296875 35.37222656 -14.96703125 35.38898438 -15.78515625 35.40625 C-17.8588264 35.42382348 -19.93273866 35.33382043 -22.00390625 35.23046875 C-24.00390625 33.23046875 -24.00390625 33.23046875 -24.26953125 30.48046875 C-24.264375 29.40796875 -24.25921875 28.33546875 -24.25390625 27.23046875 C-24.2590625 26.15796875 -24.26421875 25.08546875 -24.26953125 23.98046875 C-24.00390625 21.23046875 -24.00390625 21.23046875 -22.00390625 19.23046875 C-19.09455045 19.08529131 -16.28396025 19.04416079 -13.37890625 19.10546875 C-12.57710937 19.11449219 -11.7753125 19.12351562 -10.94921875 19.1328125 C-8.96732102 19.15640652 -6.98557644 19.1922781 -5.00390625 19.23046875 C-5.02710938 18.02648437 -5.0503125 16.8225 -5.07421875 15.58203125 C-5.09297488 14.0065166 -5.11117524 12.43099527 -5.12890625 10.85546875 C-5.14566406 10.06140625 -5.16242187 9.26734375 -5.1796875 8.44921875 C-5.19726098 6.3755486 -5.10725793 4.30163634 -5.00390625 2.23046875 C-3.00390625 0.23046875 -3.00390625 0.23046875 0 0 Z " fill="#8D8D8D" transform="translate(573.00390625,245.76953125)"/>
<path d="M0 0 C3.97588461 2.06375366 5.9588859 4.32385458 7.90625 8.26953125 C8.75753275 13.11326408 9.05919347 18.10543024 6.69921875 22.53515625 C3.58928221 26.28282661 0.48919634 28.85850964 -4.42578125 29.640625 C-9.86522392 29.78624787 -13.45899241 29.31639025 -17.6875 25.74609375 C-21.13151626 22.12987668 -22.26893193 18.65520527 -22.53125 13.76953125 C-22.35710262 9.26441417 -21.12220049 6.69646207 -18.09375 3.26953125 C-12.81472997 -1.50672497 -6.68510138 -2.33230216 0 0 Z " fill="#8D8D8D" transform="translate(614.09375,339.73046875)"/>
<path d="M0 0 C4.31585512 3.04071611 7.22997247 6.07960956 8.19921875 11.40625 C8.49353428 18.14506083 6.56470203 21.67244565 2.1875 26.75 C-1.35184252 29.67380469 -6.00978056 29.44318813 -10.37890625 29.42578125 C-15.21121858 28.60395943 -18.24797647 25.68601601 -21.25 21.9375 C-23.11080151 16.35509548 -23.18825348 10.88618031 -20.625 5.5625 C-14.4371247 -1.27673059 -8.67556466 -2.83624229 0 0 Z " fill="#8D8D8D" transform="translate(552.25,178.0625)"/>
<path d="M0 0 C4.11431714 1.4241867 7.37911044 3.50591446 10.08203125 6.99609375 C12.11550281 11.43511889 11.69409704 16.27105848 11 21 C9.26141451 24.81151433 7.78176637 26.42797583 4.4375 28.875 C-0.47000116 30.48109129 -4.89661032 30.9171309 -10 30 C-13.85103164 27.94428916 -16.23786461 25.29231654 -18.4375 21.5625 C-19.57852962 16.36447618 -19.60407936 11.71214361 -17 7 C-11.53283479 0.97209989 -7.97443249 -0.86173113 0 0 Z " fill="#8D8E8B" transform="translate(611,177)"/>
<path d="M0 0 C4.83763525 2.32923179 7.63619663 5.18147775 10 10 C10.9021605 15.64610559 10.24179585 20.19319926 7 25 C2.29912755 29.34830701 -1.47486715 30.36856931 -7.71875 30.27734375 C-12.54383827 29.69073199 -15.20069827 26.8624045 -18.375 23.4375 C-20.68105331 18.55931031 -21.02898713 14.29851582 -20 9 C-15.50988003 0.85984702 -8.86476846 -1.12212259 0 0 Z " fill="#8C8C8C" transform="translate(550,339)"/>
<path d="M0 0 C0.99 0.66 1.98 1.32 3 2 C3.33 1.34 3.66 0.68 4 0 C5.32 0 6.64 0 8 0 C8.11651725 4.37477474 8.18736 8.74914827 8.25 13.125 C8.28351563 14.3625 8.31703125 15.6 8.3515625 16.875 C8.47480285 28.33635226 8.47480285 28.33635226 4 33 C0.09070559 35.32444532 -3.5200414 35.32581517 -8 35 C-10.4375 34 -10.4375 34 -12 33 C-12 32.01 -12 31.02 -12 30 C-11.15695312 30.02320313 -10.31390625 30.04640625 -9.4453125 30.0703125 C-8.34960938 30.08835937 -7.25390625 30.10640625 -6.125 30.125 C-5.03445313 30.14820313 -3.94390625 30.17140625 -2.8203125 30.1953125 C0.1371051 30.30060534 0.1371051 30.30060534 2 28 C2.16687448 25.41645782 2.16687448 25.41645782 2 23 C1.34 23.33 0.68 23.66 0 24 C-7.08958838 24.5811138 -7.08958838 24.5811138 -10.9375 22.125 C-14.65366621 18.29622269 -14.38644845 14.93092912 -14.359375 9.7734375 C-13.80289254 5.47884463 -12.16828113 3.86654007 -9 1 C-5.98131566 -0.50934217 -3.32702771 -0.17510672 0 0 Z " fill="#959595" transform="translate(397,436)"/>
<path d="M0 0 C1.65 0 3.3 0 5 0 C5.33 4.29 5.66 8.58 6 13 C6.99 12.34 7.98 11.68 9 11 C13.96495273 10.54028216 17.06167696 10.84934157 21 14 C23.75560858 18.44173271 23.52668898 22.93061858 23 28 C21.29944789 32.20662891 19.1406793 34.17039752 15 36 C11.41455901 36.43903359 9.69857405 36.44120466 6.625 34.5 C6.08875 34.005 5.5525 33.51 5 33 C4.67 33.99 4.34 34.98 4 36 C2.68 36 1.36 36 0 36 C0 24.12 0 12.24 0 0 Z " fill="#949494" transform="translate(658,425)"/>
<path d="M0 0 C3.09632649 2.43753362 4.82300487 4.73450731 7 8 C7.4673854 12.75175157 7.4911613 15.03586856 5.3125 19.3125 C1.95202551 23.2179163 -0.30940663 24.75409551 -5.4375 25.5 C-10.6780754 24.76448065 -13.15914452 22.42658222 -16.375 18.1875 C-17.37303332 14.69438338 -17.77650152 11.5403205 -17 8 C-12.68618781 1.09260748 -8.0953628 -1.27452944 0 0 Z " fill="#909090" transform="translate(495,436)"/>
<path d="M0 0 C6 0 6 0 7.62744141 1.54125977 C8.03140137 2.25080811 8.43536133 2.96035645 8.8515625 3.69140625 C9.31046875 4.47193359 9.769375 5.25246094 10.2421875 6.05664062 C10.69851563 6.88357422 11.15484375 7.71050781 11.625 8.5625 C12.0890625 9.36236328 12.553125 10.16222656 13.03125 10.98632812 C14.37582232 13.31274209 15.688351 15.65489512 17 18 C18.32 20.31 19.64 22.62 21 25 C21.33 16.75 21.66 8.5 22 0 C23.32 0 24.64 0 26 0 C26 10.89 26 21.78 26 33 C21 33 21 33 19.515625 31.5234375 C19.09796875 30.81445312 18.6803125 30.10546875 18.25 29.375 C17.75757813 28.56933594 17.26515625 27.76367188 16.7578125 26.93359375 C16.17773438 25.96550781 15.59765625 24.99742187 15 24 C13.83615677 22.17089088 12.65955438 20.35048929 11.47998047 18.53149414 C9.64377698 15.69381534 7.82354252 12.8458315 6 10 C5.67 17.92 5.34 25.84 5 34 C3.35 34 1.7 34 0 34 C0 22.78 0 11.56 0 0 Z " fill="#999999" transform="translate(447,427)"/>
<path d="M0 0 C1.4540625 0.0309375 1.4540625 0.0309375 2.9375 0.0625 C13.9375 31.31882378 13.9375 31.31882378 13.9375 34.0625 C12.2875 34.0625 10.6375 34.0625 8.9375 34.0625 C7.9475 30.4325 6.9575 26.8025 5.9375 23.0625 C1.6475 23.0625 -2.6425 23.0625 -7.0625 23.0625 C-7.7225 26.3625 -8.3825 29.6625 -9.0625 33.0625 C-10.7125 33.0625 -12.3625 33.0625 -14.0625 33.0625 C-12.62184387 25.82150584 -10.4634157 19.01647133 -8 12.0625 C-7.63583984 11.01449219 -7.27167969 9.96648437 -6.89648438 8.88671875 C-3.80589119 0.07767125 -3.80589119 0.07767125 0 0 Z " fill="#8B8B8B" transform="translate(546.0625,426.9375)"/>
<path d="M0 0 C3.0625 0.25 3.0625 0.25 6 1 C7.57667147 4.15334294 7.16297041 7.53762241 7.16796875 11 C7.17129715 11.79148438 7.17462555 12.58296875 7.17805481 13.3984375 C7.1831204 15.07291075 7.18546325 16.7473941 7.18530273 18.421875 C7.18749127 20.98975135 7.20565609 23.55719959 7.22460938 26.125 C7.22754291 27.74999853 7.22952797 29.3749991 7.23046875 31 C7.23765427 31.77085937 7.24483978 32.54171875 7.25224304 33.3359375 C7.2288272 38.7711728 7.2288272 38.7711728 5 41 C1.9375 41.1875 1.9375 41.1875 -1 41 C-3.0700132 38.9299868 -2.16409695 34.51234075 -2.16796875 31.66015625 C-2.17129715 30.82286484 -2.17462555 29.98557343 -2.17805481 29.12290955 C-2.18312756 27.34830272 -2.18546303 25.57368633 -2.18530273 23.79907227 C-2.18748797 21.07747744 -2.20563633 18.35628857 -2.22460938 15.63476562 C-2.22754342 13.91406389 -2.22952814 12.19336023 -2.23046875 10.47265625 C-2.23765427 9.65491226 -2.24483978 8.83716827 -2.25224304 7.99464417 C-2.22882204 2.22882204 -2.22882204 2.22882204 0 0 Z " fill="#8F8F8F" transform="translate(574,177)"/>
<path d="M0 0 C2.5 0.25 2.5 0.25 4.5 2.25 C4.6997883 4.93979135 4.7798128 7.52436835 4.765625 10.21484375 C4.76753845 11.00395645 4.7694519 11.79306915 4.77142334 12.60609436 C4.77278533 14.2763806 4.7690879 15.94667742 4.76074219 17.61694336 C4.7500568 20.1739077 4.76062939 22.73016718 4.7734375 25.28710938 C4.77211563 26.90885572 4.76955266 28.53060162 4.765625 30.15234375 C4.76967346 30.91804184 4.77372192 31.68373993 4.77789307 32.47264099 C4.744398 36.26649251 4.65604644 38.01593033 2.5 41.25 C0 41.5625 0 41.5625 -2.5 41.25 C-5.074325 38.675675 -4.74775746 36.94287354 -4.77789307 33.43347168 C-4.7738446 32.64073853 -4.76979614 31.84800537 -4.765625 31.03125 C-4.76753845 30.21756958 -4.7694519 29.40388916 -4.77142334 28.56555176 C-4.77278527 26.843991 -4.76908828 25.12241997 -4.76074219 23.40087891 C-4.75004258 20.7605083 -4.760637 18.12081811 -4.7734375 15.48046875 C-4.77211591 13.80989433 -4.76955352 12.13932033 -4.765625 10.46875 C-4.76967346 9.67601685 -4.77372192 8.88328369 -4.77789307 8.06652832 C-4.71267176 0.47126718 -4.71267176 0.47126718 0 0 Z " fill="#909090" transform="translate(576.5,327.75)"/>
<path d="M0 0 C0.99 0.66 1.98 1.32 3 2 C3 2.66 3 3.32 3 4 C3.86625 3.34 4.7325 2.68 5.625 2 C9.30066901 -0.17817423 10.83198845 -0.79812987 15 0 C17.84787626 2.05447965 19.74943018 3.63094021 20.40112305 7.19165039 C20.49199684 9.74909853 20.43638845 12.256586 20.3125 14.8125 C20.28994141 15.69615234 20.26738281 16.57980469 20.24414062 17.49023438 C20.18547428 19.6608891 20.09579979 21.8306669 20 24 C18.68 24 17.36 24 16 24 C15.93941406 22.79601562 15.87882812 21.59203125 15.81640625 20.3515625 C15.73200268 18.77602923 15.64735459 17.20050904 15.5625 15.625 C15.52318359 14.8309375 15.48386719 14.036875 15.44335938 13.21875 C15.31106596 8.97398779 15.31106596 8.97398779 14 5 C11.08347826 4.83318891 11.08347826 4.83318891 8 5 C4.97906785 8.02093215 5.53323166 11.56372072 5.375 15.625 C5.33632813 16.42679687 5.29765625 17.22859375 5.2578125 18.0546875 C5.16346069 20.03607556 5.08063785 22.01800645 5 24 C3.68 24 2.36 24 1 24 C0.93941406 22.87980469 0.87882812 21.75960938 0.81640625 20.60546875 C0.73198576 19.13280016 0.64733851 17.66014456 0.5625 16.1875 C0.52318359 15.44951172 0.48386719 14.71152344 0.44335938 13.95117188 C0.25618965 10.76928658 0.01279207 8.03837622 -1 5 C-3.91652174 4.83318891 -3.91652174 4.83318891 -7 5 C-10.02093215 8.02093215 -9.46676834 11.56372072 -9.625 15.625 C-9.66367187 16.42679687 -9.70234375 17.22859375 -9.7421875 18.0546875 C-9.83653931 20.03607556 -9.91936215 22.01800645 -10 24 C-11.32 24 -12.64 24 -14 24 C-14 16.41 -14 8.82 -14 1 C-13.01 1 -12.02 1 -11 1 C-11 1.66 -11 2.32 -11 3 C-10.29875 2.505 -9.5975 2.01 -8.875 1.5 C-5.57245526 -0.22306682 -3.67482275 -0.39943726 0 0 Z " fill="#898989" transform="translate(333,436)"/>
<path d="M0 0 C3.375 2 3.375 2 6 5 C6.33 7.64 6.66 10.28 7 13 C1.06 13 -4.88 13 -11 13 C-8.66151858 18.91731018 -8.66151858 18.91731018 -5 21 C-2.4745777 21.0255089 -2.4745777 21.0255089 0.1875 20.625 C1.08855469 20.51414062 1.98960937 20.40328125 2.91796875 20.2890625 C3.60503906 20.19367188 4.29210937 20.09828125 5 20 C5 21.32 5 22.64 5 24 C0.65813329 25.4472889 -3.46255585 25.52187856 -8 25 C-11.15460202 23.22553637 -12.50737276 21.84450384 -14.3125 18.75 C-15.67647938 13.2940825 -15.81533936 9.57244019 -13.25 4.625 C-9.27202205 -0.01597427 -6.12492611 -0.73921522 0 0 Z " fill="#919191" transform="translate(425,436)"/>
<path d="M0 0 C0.75925781 -0.04898437 1.51851563 -0.09796875 2.30078125 -0.1484375 C6.1032457 0.68549087 7.42799587 2.23944251 9.6875 5.375 C10.2805216 8.6724204 10.16172113 11.85106861 10 15.1875 C9.97744141 16.07115234 9.95488281 16.95480469 9.93164062 17.86523438 C9.87297428 20.0358891 9.78329979 22.2056669 9.6875 24.375 C8.718125 24.354375 7.74875 24.33375 6.75 24.3125 C3.81284105 24.01881501 3.81284105 24.01881501 2.6875 25.375 C-4.39821429 25.83214286 -4.39821429 25.83214286 -7.3125 24.375 C-8.94560417 21.10879167 -9.09002127 17.8809141 -8.3125 14.375 C-4.92922682 10.90269332 -2.52508356 9.39590661 2.3125 9.3125 C3.42625 9.333125 4.54 9.35375 5.6875 9.375 C5.0275 7.725 4.3675 6.075 3.6875 4.375 C-1.39553686 4.26179144 -1.39553686 4.26179144 -6.3125 5.375 C-6.3125 4.055 -6.3125 2.735 -6.3125 1.375 C-4.04001762 0.23875881 -2.52947236 0.11053157 0 0 Z " fill="#898989" transform="translate(367.3125,435.625)"/>
<path d="M0 0 C0.7528125 -0.03996094 1.505625 -0.07992188 2.28125 -0.12109375 C4.5 0.4375 4.5 0.4375 6.765625 2.3515625 C9.21106628 6.70268549 8.93986797 10.35359703 8.75 15.25 C8.73195313 16.13365234 8.71390625 17.01730469 8.6953125 17.92773438 C8.64838513 20.09812543 8.57664731 22.26795519 8.5 24.4375 C7.55125 24.416875 6.6025 24.39625 5.625 24.375 C2.59333717 24.21198174 2.59333717 24.21198174 0.5 25.4375 C-5.63545817 25.88371514 -5.63545817 25.88371514 -8.4375 24.4375 C-10.17036417 21.17563804 -10.23481594 17.97603111 -9.5 14.4375 C-6.66670924 10.87303743 -4.0376333 10.20210567 0.3125 9.6875 C1.7072304 9.58738885 3.10300686 9.49837116 4.5 9.4375 C3.4354148 6.82806942 3.4354148 6.82806942 1.5 4.4375 C-1.98117973 4.00235253 -4.17339034 4.32863011 -7.5 5.4375 C-7.83 4.4475 -8.16 3.4575 -8.5 2.4375 C-5.58940329 0.79036686 -3.34411091 0.09734569 0 0 Z " fill="#8C8C8B" transform="translate(595.5,435.5625)"/>
<path d="M0 0 C2.69105198 2.17574416 4.45532928 3.91065856 6 7 C6 8.98 6 10.96 6 13 C0.39 13 -5.22 13 -11 13 C-9.00858959 19.77856815 -9.00858959 19.77856815 -6.09765625 20.90234375 C-5.42605469 20.91394531 -4.75445313 20.92554688 -4.0625 20.9375 C-3.39347656 20.96714844 -2.72445312 20.99679687 -2.03515625 21.02734375 C-1.36355469 21.01832031 -0.69195313 21.00929688 0 21 C1.32 21 2.64 21 4 21 C4 21.99 4 22.98 4 24 C0.22183202 25.88908399 -3.894414 25.6118608 -8 25 C-11.22833847 23.61073265 -13.19667884 22.02865477 -15 19 C-15.98893697 14.02622879 -15.69945422 9.67869013 -13.75 5 C-9.75842862 0.43820413 -6.21530048 -1.35651399 0 0 Z " fill="#909090" transform="translate(712,436)"/>
<path d="M0 0 C0.75925781 -0.03738281 1.51851562 -0.07476562 2.30078125 -0.11328125 C5.89954597 0.52872424 7.28825425 1.52721644 9.6875 4.3125 C10.44296305 7.7239882 10.47803899 11.07801919 10.5 14.5625 C10.52513672 15.49835938 10.55027344 16.43421875 10.57617188 17.3984375 C10.6349757 19.70354732 10.67130267 22.00676174 10.6875 24.3125 C9.3675 24.3125 8.0475 24.3125 6.6875 24.3125 C6.6875 23.6525 6.6875 22.9925 6.6875 22.3125 C5.98625 22.8075 5.285 23.3025 4.5625 23.8125 C1.22949763 25.55145776 -0.60315683 25.78603317 -4.3125 25.3125 C-6.6875 24.3125 -6.6875 24.3125 -8.3125 22.3125 C-8.76588653 19.13879432 -8.99250641 17.32395695 -8.3125 14.3125 C-5.47920924 10.74803743 -2.8501333 10.07710567 1.5 9.5625 C2.8947304 9.46238885 4.29050686 9.37337116 5.6875 9.3125 C5.33963292 7.33713255 5.33963292 7.33713255 4.6875 5.3125 C1.9415274 3.9395137 -0.2714047 4.18837366 -3.3125 4.3125 C-4.3025 4.6425 -5.2925 4.9725 -6.3125 5.3125 C-6.3125 3.9925 -6.3125 2.6725 -6.3125 1.3125 C-4.02702852 0.16976426 -2.54370095 0.08122743 0 0 Z " fill="#8C8C8C" transform="translate(641.3125,435.6875)"/>
<path d="M0 0 C4.83858548 2.32968931 7.67031069 5.16141452 10 10 C10.3627589 13.36701573 10.38666783 16.63408823 10 20 C9 21 9 21 6.0625 21.25 C5.051875 21.1675 4.04125 21.085 3 21 C0.87491756 17.81237635 0.4979837 15.73487777 0 12 C-1.03060547 11.83564453 -1.03060547 11.83564453 -2.08203125 11.66796875 C-2.98308594 11.50941406 -3.88414062 11.35085937 -4.8125 11.1875 C-5.70582031 11.03667969 -6.59914063 10.88585937 -7.51953125 10.73046875 C-10.22322052 9.93426419 -11.36404703 9.27825665 -13 7 C-12.8125 3.875 -12.8125 3.875 -12 1 C-8.285392 -0.857304 -4.05406882 -0.44282906 0 0 Z " fill="#8F8F8E" transform="translate(612,218)"/>
<path d="M0 0 C2.875 -0.125 2.875 -0.125 6 0 C8 2 8 2 8.375 5.75 C8.25542588 10.15032749 6.8561402 12.60350895 4 16 C-0.10287987 19.61444179 -2.49443026 21.15408688 -7.9375 21.25 C-8.81277344 21.27578125 -9.68804688 21.3015625 -10.58984375 21.328125 C-13 21 -13 21 -14.83203125 19.6484375 C-16 18 -16 18 -15.75 15.375 C-15 13 -15 13 -14 12 C-11.4572048 11.50668876 -8.9059331 11.10021963 -6.34765625 10.6953125 C-3.65017477 10.16888956 -3.65017477 10.16888956 -2 7 C-1.29187186 4.67891331 -0.61975848 2.34622853 0 0 Z " fill="#8F8F8F" transform="translate(615,307)"/>
<path d="M0 0 C0.7528125 -0.00515625 1.505625 -0.0103125 2.28125 -0.015625 C4.7296721 0.27749596 6.37304054 1.03183231 8.5 2.25 C8.17 4.56 7.84 6.87 7.5 9.25 C6.57767578 9.32347656 6.57767578 9.32347656 5.63671875 9.3984375 C4.82847656 9.47320312 4.02023437 9.54796875 3.1875 9.625 C2.38699219 9.69460937 1.58648438 9.76421875 0.76171875 9.8359375 C-1.77224441 10.14564426 -1.77224441 10.14564426 -4.5 12.25 C-4.87400786 14.57716 -5.20764733 16.91117862 -5.5 19.25 C-7.5 21.25 -7.5 21.25 -10.5625 21.4375 C-13.5 21.25 -13.5 21.25 -14.5 20.25 C-15.05403084 15.42720697 -15.33011568 10.81843211 -12.625 6.625 C-11.92375 5.84125 -11.2225 5.0575 -10.5 4.25 C-9.84 4.25 -9.18 4.25 -8.5 4.25 C-8.5 3.59 -8.5 2.93 -8.5 2.25 C-5.54497399 0.55757601 -3.40004978 -0.02328801 0 0 Z " fill="#8E8E8E" transform="translate(544.5,217.75)"/>
<path d="M0 0 C1.010625 0.0825 2.02125 0.165 3.0625 0.25 C5.52073172 3.93734758 6.07492616 6.94699971 7.0625 11.25 C10.6925 11.58 14.3225 11.91 18.0625 12.25 C18.3925 14.56 18.7225 16.87 19.0625 19.25 C14.71516526 21.69353578 10.96448233 22.05184197 6.0625 21.25 C2.06736531 19.46330829 -0.37182586 17.05289233 -2.875 13.5 C-4.22552244 9.36899017 -4.40989392 5.56513677 -3.9375 1.25 C-2.9375 0.25 -2.9375 0.25 0 0 Z " fill="#8D8D8D" transform="translate(533.9375,306.75)"/>
<path d="M0 0 C2.875 1.0625 2.875 1.0625 4.75 2.5625 C6.47819862 6.40294138 6.65261254 9.93235038 5.875 14.0625 C3.75 17.1875 3.75 17.1875 0.875 19.0625 C-2.25 19.1875 -2.25 19.1875 -5.125 18.0625 C-8.15326297 14.73141073 -8.72149542 11.37400396 -8.5390625 7.00390625 C-7.53182245 2.28128074 -4.65605101 0.09312102 0 0 Z " fill="#F7F7F7" transform="translate(491.125,438.9375)"/>
<path d="M0 0 C1.65 0 3.3 0 5 0 C5.79211929 1.89564426 6.58367576 3.79152371 7.375 5.6875 C8.03628906 7.27111328 8.03628906 7.27111328 8.7109375 8.88671875 C9.82757462 11.58356657 10.92291801 14.28716264 12 17 C12.37511719 15.85660156 12.75023437 14.71320313 13.13671875 13.53515625 C13.65256349 12.043896 14.16955018 10.55303041 14.6875 9.0625 C14.93177734 8.30775391 15.17605469 7.55300781 15.42773438 6.77539062 C16.15782756 4.71449468 16.85251705 2.86228955 18 1 C20.70703125 -0.00390625 20.70703125 -0.00390625 23 0 C20.69356492 8.13815304 17.89571216 16.05682118 15 24 C13.02 24 11.04 24 9 24 C7.68647994 20.56288891 6.37435968 17.12524512 5.0625 13.6875 C4.68931641 12.71103516 4.31613281 11.73457031 3.93164062 10.72851562 C3.57392578 9.79072266 3.21621094 8.85292969 2.84765625 7.88671875 C2.51773682 7.02264404 2.18781738 6.15856934 1.84790039 5.26831055 C1.19629058 3.52511827 0.58849933 1.765498 0 0 Z " fill="#898989" transform="translate(560,436)"/>
<path d="M0 0 C1.98 0 3.96 0 6 0 C6.70304222 1.72290605 7.38683491 3.45367466 8.0625 5.1875 C8.44535156 6.15042969 8.82820312 7.11335938 9.22265625 8.10546875 C10.52820015 12.96681564 9.22155086 15.55689828 7 20 C4.03 20 1.06 20 -2 20 C-2 18.02 -2 16.04 -2 14 C-2.99 14.33 -3.98 14.66 -5 15 C-4.43174347 9.45949887 -2.37113483 4.96284034 0 0 Z " fill="#919191" transform="translate(543,427)"/>
<path d="M0 0 C2.5 1.375 2.5 1.375 4 4 C4.21112739 8.16125283 4.23418025 12.35922392 1.66015625 15.78125 C-1.17037829 17.85919535 -3.63509492 17.42061313 -7 17 C-8.9375 15.5625 -8.9375 15.5625 -10 13 C-10.537354 8.87524039 -10.54136452 5.30564384 -8.9375 1.4375 C-5.89543172 -0.8195184 -3.66947222 -0.51501365 0 0 Z " fill="#FAFAFA" transform="translate(673,440)"/>
<path d="M0 0 C2.8125 1 2.8125 1 4.8125 4 C5.11328125 6.59375 5.11328125 6.59375 5.125 9.5 C5.14175781 10.4590625 5.15851563 11.418125 5.17578125 12.40625 C4.8125 15 4.8125 15 3.4765625 16.8125 C0.81655692 18.71071994 -1.02211682 18.51679725 -4.1875 18 C-6.682492 15.8989541 -7.9110205 14.28162462 -8.60546875 11.0625 C-8.88785563 7.03276291 -8.42107511 5.33662296 -6.0625 1.9375 C-3.1875 0 -3.1875 0 0 0 Z " fill="#F8F8F8" transform="translate(395.1875,439)"/>
<path d="M0 0 C1.32 0 2.64 0 4 0 C4 10.89 4 21.78 4 33 C2.35 33 0.7 33 -1 33 C-2.73046875 31.20703125 -2.73046875 31.20703125 -4.1875 28.8125 C-4.67605469 28.03519531 -5.16460937 27.25789063 -5.66796875 26.45703125 C-6.98712241 24.02375368 -8.02940513 21.5897863 -9 19 C-8.34 19 -7.68 19 -7 19 C-6.67 18.34 -6.34 17.68 -6 17 C-3.74754119 19.68841859 -2.11786042 21.64641875 -1 25 C-0.67 16.75 -0.34 8.5 0 0 Z " fill="#8F8F8F" transform="translate(469,427)"/>
<path d="M0 0 C1.32 0 2.64 0 4 0 C4 2.31 4 4.62 4 7 C5.98 7 7.96 7 10 7 C10 7.99 10 8.98 10 10 C8.02 10 6.04 10 4 10 C4 15.28 4 20.56 4 26 C6.31 26.33 8.62 26.66 11 27 C11 28.32 11 29.64 11 31 C3.57974765 31.48657392 3.57974765 31.48657392 1.25 29.53125 C-0.59883162 25.78736597 -0.32046926 22.36181877 -0.1875 18.25 C-0.17396484 17.45722656 -0.16042969 16.66445313 -0.14648438 15.84765625 C-0.11125223 13.89814436 -0.05744821 11.94898374 0 10 C-1.32 10 -2.64 10 -4 10 C-4 8.68 -4 7.36 -4 6 C-2.68 6 -1.36 6 0 6 C0 4.02 0 2.04 0 0 Z " fill="#888888" transform="translate(508,430)"/>
<path d="M0 0 C0.99 0.66 1.98 1.32 3 2 C3 2.66 3 3.32 3 4 C3.66 4.33 4.32 4.66 5 5 C4.32453125 4.88140625 3.6490625 4.7628125 2.953125 4.640625 C-2.52926691 3.73655609 -2.52926691 3.73655609 -7.625 5.4375 C-9.55167071 9.0281136 -9.6718188 12.01005175 -9 16 C-7.98009206 18.50098982 -7.98009206 18.50098982 -6 20 C-3.40144267 20.8042208 -3.40144267 20.8042208 -1 21 C-1 21.99 -1 22.98 -1 24 C-5.13998349 24.32470459 -7.33999001 24.4304413 -10.875 22.125 C-14.00039487 18.99960513 -14.22123286 17.07913627 -14.375 12.75 C-14.35444506 8.8342844 -14.15450377 6.42528396 -11.625 3.375 C-7.61691187 -0.25136545 -5.37643177 -0.28297009 0 0 Z " fill="#8A8A8A" transform="translate(397,436)"/>
<path d="M0 0 C1.32 0 2.64 0 4 0 C4 11.55 4 23.1 4 35 C2.68 35 1.36 35 0 35 C0 23.45 0 11.9 0 0 Z " fill="#878787" transform="translate(623,425)"/>
<path d="M0 0 C0.65355469 0.30679687 1.30710937 0.61359375 1.98046875 0.9296875 C5.74297246 2.26335635 9.36018692 2.69409545 13.3125 3.125 C14.42334961 3.25455078 14.42334961 3.25455078 15.55664062 3.38671875 C17.37038435 3.59734705 19.18510543 3.79952986 21 4 C21 4.33 21 4.66 21 5 C15.39 5 9.78 5 4 5 C6.33848142 10.91731018 6.33848142 10.91731018 10 13 C12.5254223 13.0255089 12.5254223 13.0255089 15.1875 12.625 C16.08855469 12.51414062 16.98960937 12.40328125 17.91796875 12.2890625 C18.60503906 12.19367188 19.29210937 12.09828125 20 12 C20 13.32 20 14.64 20 16 C15.65813329 17.4472889 11.53744415 17.52187856 7 17 C3.84539798 15.22553637 2.49262724 13.84450384 0.6875 10.75 C-0.23391867 7.06432532 -0.12867983 3.79605497 0 0 Z " fill="#868685" transform="translate(410,444)"/>
<path d="M0 0 C1.32 0 2.64 0 4 0 C4 11.22 4 22.44 4 34 C2.68 34 1.36 34 0 34 C0 22.78 0 11.56 0 0 Z " fill="#8B8B8B" transform="translate(687,426)"/>
<path d="M0 0 C1.32 0 2.64 0 4 0 C4 10.89 4 21.78 4 33 C2.68 33 1.36 33 0 33 C0 22.11 0 11.22 0 0 Z " fill="#888888" transform="translate(307,427)"/>
<path d="M0 0 C1.65 0 3.3 0 5 0 C5 8.25 5 16.5 5 25 C3.35 25 1.7 25 0 25 C0 16.75 0 8.5 0 0 Z " fill="#9C9C9C" transform="translate(611,436)"/>
<path d="M0 0 C3 2.4375 3 2.4375 5 5 C5.33 5.33 5.66 5.66 6 6 C6.04080783 7.99958364 6.04254356 10.00045254 6 12 C5.01 12.33 4.02 12.66 3 13 C2.78085937 12.43410156 2.56171875 11.86820312 2.3359375 11.28515625 C0.3279387 6.42830847 0.3279387 6.42830847 -4 3.75 C-7.04286876 3.75172831 -7.04286876 3.75172831 -9.25 5.5625 C-11.16843983 7.98044589 -11.16843983 7.98044589 -12.0625 11.1875 C-12.5265625 12.5796875 -12.5265625 12.5796875 -13 14 C-13.99 14.33 -14.98 14.66 -16 15 C-16.66964286 7.23214286 -16.66964286 7.23214286 -13.625 3.5625 C-9.444334 -0.51862633 -5.6966753 -0.91501002 0 0 Z " fill="#898989" transform="translate(495,436)"/>
<path d="M0 0 C1.875 1.125 1.875 1.125 3 3 C3.39310741 6.14485925 3.47555213 8.13281671 1.9375 10.9375 C-1.21566824 12.66665678 -3.62508255 11.8590699 -7 11 C-9.15502531 7.76746204 -9.46856135 6.74849077 -9 3 C-6.73529086 -0.64869805 -4.03159541 -0.50394943 0 0 Z " fill="#F6F6F5" transform="translate(610,348)"/>
<path d="M0 0 C0.66 0.66 1.32 1.32 2 2 C1.8125 5.5 1.8125 5.5 1 9 C-2 11 -2 11 -5.0625 10.8125 C-8 10 -8 10 -10 7 C-10.35242362 4.18061103 -10.34645957 2.61139923 -8.9375 0.125 C-5.82785011 -1.68060316 -3.38260527 -0.79952488 0 0 Z " fill="#F6F6F6" transform="translate(549,349)"/>
<path d="M0 0 C2.9375 0.8125 2.9375 0.8125 4.9375 3.8125 C5.3125 6.3125 5.3125 6.3125 4.9375 8.8125 C2.80958838 11.0980347 1.46341672 11.73553658 -1.625 12.1875 C-4.0625 11.8125 -4.0625 11.8125 -5.9375 10.75 C-7.76098531 7.60955307 -6.9283284 5.2139687 -6.0625 1.8125 C-3.0625 -0.1875 -3.0625 -0.1875 0 0 Z " fill="#F4F4F4" transform="translate(546.0625,186.1875)"/>
<path d="M0 0 C1.65 0 3.3 0 5 0 C5.33 4.29 5.66 8.58 6 13 C6.99 12.67 7.98 12.34 9 12 C9 12.66 9 13.32 9 14 C10.65 14 12.3 14 14 14 C14 14.33 14 14.66 14 15 C11.69 15.66 9.38 16.32 7 17 C6.34 20.3 5.68 23.6 5 27 C4.67 27 4.34 27 4 27 C3.67 25.35 3.34 23.7 3 22 C2.67 22 2.34 22 2 22 C2 15.4 2 8.8 2 2 C2.66 1.67 3.32 1.34 4 1 C3.01 1 2.02 1 1 1 C1 12.22 1 23.44 1 35 C1.99 35.33 2.98 35.66 4 36 C2.68 36 1.36 36 0 36 C0 24.12 0 12.24 0 0 Z " fill="#A4A4A4" transform="translate(658,425)"/>
<path d="M0 0 C1.8125 1.125 1.8125 1.125 3 3 C3.39310741 6.14485925 3.47555213 8.13281671 1.9375 10.9375 C-1.21566824 12.66665678 -3.62508255 11.8590699 -7 11 C-9 8 -9 8 -8.8125 5.5 C-7.24981526 0.69173926 -5.06096263 -0.75914439 0 0 Z " fill="#F6F6F5" transform="translate(610,186)"/>
<path d="M0 0 C0.7528125 -0.03996094 1.505625 -0.07992188 2.28125 -0.12109375 C4.5 0.4375 4.5 0.4375 6.765625 2.3515625 C9.21106628 6.70268549 8.93986797 10.35359703 8.75 15.25 C8.73195313 16.13365234 8.71390625 17.01730469 8.6953125 17.92773438 C8.64838513 20.09812543 8.57664731 22.26795519 8.5 24.4375 C7.51 24.1075 6.52 23.7775 5.5 23.4375 C6.16 23.4375 6.82 23.4375 7.5 23.4375 C7.17 21.1275 6.84 18.8175 6.5 16.4375 C5.84 17.4275 5.18 18.4175 4.5 19.4375 C4.5 17.1275 4.5 14.8175 4.5 12.4375 C3.84 12.1075 3.18 11.7775 2.5 11.4375 C2.70625 10.65375 2.9125 9.87 3.125 9.0625 C3.24875 8.19625 3.3725 7.33 3.5 6.4375 C1.62355493 4.12063634 1.62355493 4.12063634 -1.4375 4.25 C-4.54093079 4.30799768 -4.54093079 4.30799768 -7.5 5.4375 C-7.83 4.4475 -8.16 3.4575 -8.5 2.4375 C-5.58940329 0.79036686 -3.34411091 0.09734569 0 0 Z " fill="#848484" transform="translate(595.5,435.5625)"/>
<path d="M0 0 C0.99 0 1.98 0 3 0 C3.02707139 2.24993359 3.04642829 4.49996095 3.0625 6.75 C3.07410156 8.00296875 3.08570313 9.2559375 3.09765625 10.546875 C3.02021027 13.28536501 2.82780815 15.41880293 2 18 C2.33 18 2.66 18 3 18 C3.061875 19.216875 3.12375 20.43375 3.1875 21.6875 C3.74592042 26.19475055 5.40332108 28.15611434 9 31 C11.16620544 32.29519995 11.16620544 32.29519995 13 33 C9.625 33.625 9.625 33.625 6 34 C5.34 33.34 4.68 32.68 4 32 C3.67 32.66 3.34 33.32 3 34 C2.01 34 1.02 34 0 34 C0 22.78 0 11.56 0 0 Z " fill="#818181" transform="translate(659,426)"/>
<path d="M0 0 C0.33 0 0.66 0 1 0 C1.14575327 3.39537852 1.23421542 6.78994902 1.3125 10.1875 C1.35439453 11.14720703 1.39628906 12.10691406 1.43945312 13.09570312 C1.56319748 20.24812665 1.56319748 20.24812665 -1.33203125 24.11328125 C-5.59559308 27.12836231 -8.86747913 27.27013268 -14 27 C-16.4375 26 -16.4375 26 -18 25 C-18 24.01 -18 23.02 -18 22 C-17.16855469 22.05800781 -16.33710938 22.11601562 -15.48046875 22.17578125 C-14.39378906 22.22089844 -13.30710937 22.26601563 -12.1875 22.3125 C-10.56908203 22.39951172 -10.56908203 22.39951172 -8.91796875 22.48828125 C-5.81679064 22.31304792 -5.81679064 22.31304792 -4.23828125 19.66796875 C-3.62533203 18.34732422 -3.62533203 18.34732422 -3 17 C-2.34 16.01 -1.68 15.02 -1 14 C-0.70547416 11.61322924 -0.5071783 9.21373906 -0.375 6.8125 C-0.30023438 5.54019531 -0.22546875 4.26789063 -0.1484375 2.95703125 C-0.09945313 1.98121094 -0.05046875 1.00539063 0 0 Z " fill="#8C8C8C" transform="translate(403,444)"/>
<path d="M0 0 C1.32 0 2.64 0 4 0 C-1.01015228 17.34010152 -1.01015228 17.34010152 -5 20 C-5.99 20 -6.98 20 -8 20 C-6.59128327 15.68211942 -5.06140508 11.42904312 -3.4375 7.1875 C-3.00308594 6.04667969 -2.56867187 4.90585937 -2.12109375 3.73046875 C-1 1 -1 1 0 0 Z " fill="#8E8E8E" transform="translate(579,436)"/>
<path d="M0 0 C0.48492623 6.42527261 0.48492623 6.42527261 -1.6875 9 C-4.57988753 10.25076218 -6.04008656 9.95997193 -9 9 C-10 8 -10 8 -10.375 5.625 C-10 3 -10 3 -7.8125 1.1875 C-4.92808899 -0.03036243 -3.08954177 -0.26481787 0 0 Z " fill="#F5F5F5" transform="translate(600,448)"/>
<path d="M0 0 C0.48492623 6.42527261 0.48492623 6.42527261 -1.6875 9 C-4.57988753 10.25076218 -6.04008656 9.95997193 -9 9 C-10 8 -10 8 -10.375 5.625 C-10 3 -10 3 -7.8125 1.1875 C-4.92808899 -0.03036243 -3.08954177 -0.26481787 0 0 Z " fill="#F5F5F5" transform="translate(373,448)"/>
<path d="M0 0 C0.48492623 6.42527261 0.48492623 6.42527261 -1.6875 9 C-4.57988753 10.25076218 -6.04008656 9.95997193 -9 9 C-10 8 -10 8 -10.375 5.625 C-10 3 -10 3 -7.8125 1.1875 C-4.92808899 -0.03036243 -3.08954177 -0.26481787 0 0 Z " fill="#F3F3F3" transform="translate(647,448)"/>
<path d="M0 0 C2.17186421 2.17186421 2.6793248 3.49976531 3.625 6.375 C3.88539063 7.14585937 4.14578125 7.91671875 4.4140625 8.7109375 C5 11 5 11 5 15 C2.03 15 -0.94 15 -4 15 C-3.43179252 9.54520815 -2.05362055 5.08940744 0 0 Z " fill="#F2F2F2" transform="translate(545,432)"/>
<path d="M0 0 C0.99 0.33 1.98 0.66 3 1 C3 3.97 3 6.94 3 10 C-1.92737019 11.97094808 -5.78020872 12.1799928 -11 12 C-13.21538462 6.58461538 -13.21538462 6.58461538 -12.125 3.625 C-11.75375 3.08875 -11.3825 2.5525 -11 2 C-10.67 2 -10.34 2 -10 2 C-9.34 3.98 -8.68 5.96 -8 8 C-6.02 7.67 -4.04 7.34 -2 7 C-1.34 4.69 -0.68 2.38 0 0 Z " fill="#8F8F8F" transform="translate(373,449)"/>
<path d="M0 0 C1.74271938 2.297221 3.39911152 4.59866729 5 7 C9.13554034 7.7337249 12.80005411 8 17 8 C17 8.99 17 9.98 17 11 C13.2622014 12.8688993 9.07011695 12.54061095 5 12 C1.96853217 10.6974618 1.13412235 9.71091217 -1 7 C-0.875 3.1875 -0.875 3.1875 0 0 Z " fill="#909090" transform="translate(699,449)"/>
<path d="M0 0 C3.5 0.1875 3.5 0.1875 7 1 C9 4 9 4 9 7 C4.71 7 0.42 7 -4 7 C-2 2 -2 2 0 0 Z " fill="#F7F7F7" transform="translate(705,439)"/>
<path d="M0 0 C0.33 0 0.66 0 1 0 C1 3.3 1 6.6 1 10 C1.66 10 2.32 10 3 10 C3 11.98 3 13.96 3 16 C5.64 16.33 8.28 16.66 11 17 C11 18.32 11 19.64 11 21 C3.57974765 21.48657392 3.57974765 21.48657392 1.25 19.53125 C-0.59883162 15.78736597 -0.32046926 12.36181877 -0.1875 8.25 C-0.17396484 7.45722656 -0.16042969 6.66445313 -0.14648438 5.84765625 C-0.11125223 3.89814436 -0.05744821 1.94898374 0 0 Z " fill="#929292" transform="translate(508,440)"/>
<path d="M0 0 C1.8125 1.25 1.8125 1.25 3 3 C3 4.32 3 5.64 3 7 C-0.96 7 -4.92 7 -9 7 C-8.67 5.35 -8.34 3.7 -8 2 C-4.76746204 -0.15502531 -3.74849077 -0.46856135 0 0 Z " fill="#F7F7F7" transform="translate(424,439)"/>
<path d="M0 0 C1.32 0.33 2.64 0.66 4 1 C4 6.28 4 11.56 4 17 C2.68 17 1.36 17 0 17 C0 11.39 0 5.78 0 0 Z " fill="#888888" transform="translate(349,443)"/>
<path d="M0 0 C3 1 3 1 4.1875 2.6875 C5 5 5 5 5 11 C-0.61 11 -6.22 11 -12 11 C-8.25631258 9.12815629 -7.1599209 8.76000233 -3.25 8.875 C-2.45078125 8.89304687 -1.6515625 8.91109375 -0.828125 8.9296875 C-0.22484375 8.95289063 0.3784375 8.97609375 1 9 C0.649375 7.88625 0.29875 6.7725 -0.0625 5.625 C-1 2 -1 2 0 0 Z " fill="#888888" transform="translate(713,438)"/>
<path d="M0 0 C4.91878297 -0.28934017 8.15800309 -0.27699736 12 3 C12.8125 5.6875 12.8125 5.6875 13 8 C12.34 8 11.68 8 11 8 C11 10.97 11 13.94 11 17 C10.67 17 10.34 17 10 17 C9.93941406 16.38511719 9.87882813 15.77023437 9.81640625 15.13671875 C9.73261719 14.32847656 9.64882813 13.52023437 9.5625 12.6875 C9.48128906 11.88699219 9.40007813 11.08648437 9.31640625 10.26171875 C9.04734307 7.83912821 9.04734307 7.83912821 8 5 C6.12612784 4.19787372 6.12612784 4.19787372 3.9375 3.8125 C3.20402344 3.65394531 2.47054687 3.49539063 1.71484375 3.33203125 C1.14894531 3.22246094 0.58304688 3.11289062 0 3 C0 2.01 0 1.02 0 0 Z " fill="#868686" transform="translate(667,436)"/>
<path d="M0 0 C0.33 0 0.66 0 1 0 C1.33 5.94 1.66 11.88 2 18 C0.68 18 -0.64 18 -2 18 C-3.17851551 14.31713904 -3.06859542 10.84134343 -3 7 C-3 5.68 -3 4.36 -3 3 C-2.01 2.67 -1.02 2.34 0 2 C0 1.34 0 0.68 0 0 Z " fill="#848484" transform="translate(650,442)"/>
<path d="M0 0 C0.65355469 0.30679687 1.30710937 0.61359375 1.98046875 0.9296875 C5.74297246 2.26335635 9.36018692 2.69409545 13.3125 3.125 C14.42334961 3.25455078 14.42334961 3.25455078 15.55664062 3.38671875 C17.37038435 3.59734705 19.18510543 3.79952986 21 4 C21 4.33 21 4.66 21 5 C15.39 5 9.78 5 4 5 C3.34 6.65 2.68 8.3 2 10 C0 8 0 8 -0.1953125 6.0546875 C-0.13020833 4.03645833 -0.06510417 2.01822917 0 0 Z " fill="#848484" transform="translate(410,444)"/>
<path d="M0 0 C1.98 0.495 1.98 0.495 4 1 C4.99 4.63 5.98 8.26 7 12 C5.35 12 3.7 12 2 12 C1.47026689 10.37787941 0.95146893 8.75218416 0.4375 7.125 C0.14746094 6.22007812 -0.14257812 5.31515625 -0.44140625 4.3828125 C-1 2 -1 2 0 0 Z " fill="#939393" transform="translate(553,449)"/>
<path d="M0 0 C0.99 0 1.98 0 3 0 C4.2062252 3.61867559 4.10816918 6.92506251 4.0625 10.6875 C4.05798828 11.38939453 4.05347656 12.09128906 4.04882812 12.81445312 C4.03706927 14.54300538 4.01913454 16.27151365 4 18 C3.01 17.67 2.02 17.34 1 17 C1.66 17 2.32 17 3 17 C2.67 14.69 2.34 12.38 2 10 C1.01 11.485 1.01 11.485 0 13 C0 10.69 0 8.38 0 6 C-0.66 5.67 -1.32 5.34 -2 5 C-1.34 3.35 -0.68 1.7 0 0 Z " fill="#828282" transform="translate(600,442)"/>
<path d="M0 0 C0.33 0.66 0.66 1.32 1 2 C1.99 2.33 2.98 2.66 4 3 C5.33333333 4.33333333 6.66666667 5.66666667 8 7 C10.13309192 8.23512079 10.13309192 8.23512079 12 9 C8.625 9.625 8.625 9.625 5 10 C4.34 9.34 3.68 8.68 3 8 C2.67 8.66 2.34 9.32 2 10 C1.01 10 0.02 10 -1 10 C-0.67 6.7 -0.34 3.4 0 0 Z " fill="#888888" transform="translate(660,450)"/>
<path d="M0 0 C0.33 0 0.66 0 1 0 C1.05802698 3.43742918 1.09360486 6.87473253 1.125 10.3125 C1.15013672 11.77719727 1.15013672 11.77719727 1.17578125 13.27148438 C1.18222656 14.20927734 1.18867188 15.14707031 1.1953125 16.11328125 C1.20578613 16.97735596 1.21625977 17.84143066 1.22705078 18.73168945 C1 21 1 21 -1 24 C-1.66 24 -2.32 24 -3 24 C-3.25 17.375 -3.25 17.375 -1 14 C-0.70547416 11.61322924 -0.5071783 9.21373906 -0.375 6.8125 C-0.30023438 5.54019531 -0.22546875 4.26789063 -0.1484375 2.95703125 C-0.09945313 1.98121094 -0.05046875 1.00539063 0 0 Z " fill="#898989" transform="translate(403,444)"/>
<path d="M0 0 C0.66 0.33 1.32 0.66 2 1 C2 1.99 2 2.98 2 4 C5.0745356 3.2236068 5.0745356 3.2236068 7 1 C6.67 3.31 6.34 5.62 6 8 C4.02 8 2.04 8 0 8 C-1.125 2.25 -1.125 2.25 0 0 Z " fill="#888888" transform="translate(569,452)"/>
<path d="M0 0 C2.6875 0.875 2.6875 0.875 5 2 C4.443125 2.20625 3.88625 2.4125 3.3125 2.625 C0.09117285 4.54038371 -1.65432575 7.08375634 -4 10 C-4.33 10 -4.66 10 -5 10 C-5 7.03 -5 4.06 -5 1 C-4.01 1.495 -4.01 1.495 -3 2 C-2.01 1.34 -1.02 0.68 0 0 Z " fill="#939393" transform="translate(325,437)"/>
<path d="M0 0 C1.32 0 2.64 0 4 0 C4 1.65 4 3.3 4 5 C3.01 4.67 2.02 4.34 1 4 C1 10.6 1 17.2 1 24 C0.67 24 0.34 24 0 24 C0 16.08 0 8.16 0 0 Z " fill="#858585" transform="translate(687,426)"/>
<path d="M0 0 C0 1.32 0 2.64 0 4 C-3.01490557 5.00496852 -5.04181692 5.10335303 -8.1875 5.0625 C-9.53908203 5.04896484 -9.53908203 5.04896484 -10.91796875 5.03515625 C-11.60503906 5.02355469 -12.29210937 5.01195312 -13 5 C-10.8010559 2.48396678 -9.19278353 1.52440313 -5.9375 0.8125 C-5.24527344 0.65394531 -4.55304688 0.49539063 -3.83984375 0.33203125 C-2 0 -2 0 0 0 Z " fill="#949493" transform="translate(430,456)"/>
<path d="M0 0 C0.66 0 1.32 0 2 0 C2 3.96 2 7.92 2 12 C1.01 12 0.02 12 -1 12 C-1.02698189 10.37509046 -1.04638757 8.75005367 -1.0625 7.125 C-1.07410156 6.22007812 -1.08570313 5.31515625 -1.09765625 4.3828125 C-1 2 -1 2 0 0 Z " fill="#898989" transform="translate(613,448)"/>
<path d="M0 0 C1.39456452 0.00667256 2.78911118 0.01863093 4.18359375 0.03515625 C4.89451172 0.03966797 5.60542969 0.04417969 6.33789062 0.04882812 C8.09899388 0.06064761 9.86005411 0.07858362 11.62109375 0.09765625 C11.62109375 0.42765625 11.62109375 0.75765625 11.62109375 1.09765625 C5.18609375 1.59265625 5.18609375 1.59265625 -1.37890625 2.09765625 C-1.70890625 3.08765625 -2.03890625 4.07765625 -2.37890625 5.09765625 C-3.34763657 6.4538787 -4.3432484 7.79182678 -5.37890625 9.09765625 C-4.3821279 0.1266511 -4.3821279 0.1266511 0 0 Z " fill="#969696" transform="translate(702.37890625,445.90234375)"/>
<path d="M0 0 C0.33 0 0.66 0 1 0 C1 3.63 1 7.26 1 11 C-0.65 10.67 -2.3 10.34 -4 10 C-3.67 8.68 -3.34 7.36 -3 6 C-2.34 6 -1.68 6 -1 6 C-0.67 4.02 -0.34 2.04 0 0 Z " fill="#848484" transform="translate(471,449)"/>
<path d="M0 0 C0.33 0 0.66 0 1 0 C1.33 1.98 1.66 3.96 2 6 C2.66 6 3.32 6 4 6 C4.33 5.01 4.66 4.02 5 3 C5.14285714 10.42857143 5.14285714 10.42857143 4 14 C0.07260562 9.09075703 -0.43177893 6.26079448 0 0 Z " fill="#969695" transform="translate(478,444)"/>
<path d="M0 0 C0.33 0.99 0.66 1.98 1 3 C-2.3 3.66 -5.6 4.32 -9 5 C-9 3.68 -9 2.36 -9 1 C-6.04335481 -0.4783226 -3.25770263 -0.06032783 0 0 Z " fill="#888888" transform="translate(370,436)"/>
<path d="M0 0 C0.99 0.33 1.98 0.66 3 1 C3 3.97 3 6.94 3 10 C2.01 10.33 1.02 10.66 0 11 C-1.125 9.4375 -1.125 9.4375 -2 7 C-1.125 3.25 -1.125 3.25 0 0 Z " fill="#979797" transform="translate(373,449)"/>
<path d="M0 0 C0.99 0 1.98 0 3 0 C2.67 4.62 2.34 9.24 2 14 C0 12 0 12 -0.1953125 9.1796875 C-0.17210937 8.08914063 -0.14890625 6.99859375 -0.125 5.875 C-0.10695313 4.77929688 -0.08890625 3.68359375 -0.0703125 2.5546875 C-0.04710937 1.71164062 -0.02390625 0.86859375 0 0 Z " fill="#878787" transform="translate(449,429)"/>
<path d="M0 0 C3.16115776 1.36983503 3.9927092 1.9890638 6 5 C5.625 7.1875 5.625 7.1875 5 9 C4.34 8.34 3.68 7.68 3 7 C2.01 6.34 1.02 5.68 0 5 C-0.1875 2.375 -0.1875 2.375 0 0 Z " fill="#929292" transform="translate(598,436)"/>
<path d="M0 0 C0.33 0.66 0.66 1.32 1 2 C1.99 2.33 2.98 2.66 4 3 C2 6 2 6 0 8 C-0.99 8 -1.98 8 -3 8 C-1.125 2.25 -1.125 2.25 0 0 Z " fill="#9B9B9B" transform="translate(574,448)"/>
<path d="M0 0 C0.66 0.33 1.32 0.66 2 1 C2 2.32 2 3.64 2 5 C-2.25061356 6.41687119 -4.71851625 5.19320039 -9 4 C-9 3.67 -9 3.34 -9 3 C-7.88625 2.87625 -6.7725 2.7525 -5.625 2.625 C-1.96896323 2.3534187 -1.96896323 2.3534187 0 0 Z " fill="#9A9A9A" transform="translate(399,464)"/>
<path d="M0 0 C2.01136276 2.55991624 3.62845496 5.04590299 5 8 C3.35 8 1.7 8 0 8 C-0.79953138 4.71303767 -1.09658936 3.28976808 0 0 Z " fill="#858585" transform="translate(699,449)"/>
<path d="M0 0 C2.31 0.33 4.62 0.66 7 1 C7 1.99 7 2.98 7 4 C4.69 4 2.38 4 0 4 C-0.33 3.34 -0.66 2.68 -1 2 C-0.67 1.34 -0.34 0.68 0 0 Z " fill="#818181" transform="translate(389,456)"/>
<path d="M0 0 C0.66 0 1.32 0 2 0 C1.67 2.64 1.34 5.28 1 8 C0.01 8.33 -0.98 8.66 -2 9 C-2.6875 6.75 -2.6875 6.75 -3 4 C-1.6875 1.6875 -1.6875 1.6875 0 0 Z " fill="#949494" transform="translate(414,438)"/>
<path d="M0 0 C1.98 0.495 1.98 0.495 4 1 C4 2.32 4 3.64 4 5 C2.35 5 0.7 5 -1 5 C-0.67 3.35 -0.34 1.7 0 0 Z " fill="#898989" transform="translate(612,427)"/>
<path d="M0 0 C-0.33 0.66 -0.66 1.32 -1 2 C-3.3140622 2.73075648 -5.64828869 3.40138258 -8 4 C-8.33 2.68 -8.66 1.36 -9 0 C-3.375 -1.125 -3.375 -1.125 0 0 Z " fill="#939393" transform="translate(647,446)"/>
<path d="M0 0 C0.66 0 1.32 0 2 0 C3.7143618 1.95927063 5.38405168 3.95880212 7 6 C4.6875 6.3125 4.6875 6.3125 2 6 C0.1875 3.5 0.1875 3.5 -1 1 C-0.67 0.67 -0.34 0.34 0 0 Z " fill="#8E8E8D" transform="translate(412,453)"/>
<path d="M0 0 C1.32 0 2.64 0 4 0 C4 0.66 4 1.32 4 2 C3.01 2.33 2.02 2.66 1 3 C-0.21869929 5.50447516 -0.21869929 5.50447516 -1 8 C-1.66 8 -2.32 8 -3 8 C-1.125 1.125 -1.125 1.125 0 0 Z " fill="#979797" transform="translate(579,436)"/>
<path d="M0 0 C-2 3 -2 3 -3.9375 3.875 C-6 4 -6 4 -7.75 2.5625 C-8.1625 2.046875 -8.575 1.53125 -9 1 C-5.92677456 0.08941469 -3.19902639 -0.08886184 0 0 Z " fill="#989898" transform="translate(600,445)"/>
<path d="M0 0 C0.66 0 1.32 0 2 0 C2.33 1.65 2.66 3.3 3 5 C1.02 5.99 1.02 5.99 -1 7 C-1.33 5.35 -1.66 3.7 -2 2 C-1.34 2 -0.68 2 0 2 C0 1.34 0 0.68 0 0 Z " fill="#959595" transform="translate(568,448)"/>
<path d="M0 0 C1.65 0 3.3 0 5 0 C5 1.32 5 2.64 5 4 C4.01 4.495 4.01 4.495 3 5 C3 4.34 3 3.68 3 3 C2.01 2.67 1.02 2.34 0 2 C0 1.34 0 0.68 0 0 Z " fill="#A0A0A0" transform="translate(560,436)"/>
<path d="M0 0 C0.33 0 0.66 0 1 0 C1 2.64 1 5.28 1 8 C0.34 8 -0.32 8 -1 8 C-1.66 6.68 -2.32 5.36 -3 4 C-2.34 4 -1.68 4 -1 4 C-0.67 2.68 -0.34 1.36 0 0 Z " fill="#898989" transform="translate(602,451)"/>
<path d="M0 0 C-0.66 0.66 -1.32 1.32 -2 2 C-2.99 2 -3.98 2 -5 2 C-5.33 2.66 -5.66 3.32 -6 4 C-6.99 3.01 -7.98 2.02 -9 1 C-6.04335481 -0.4783226 -3.25770263 -0.06032783 0 0 Z " fill="#A2A2A2" transform="translate(373,445)"/>
<path d="M0 0 C0.99 0 1.98 0 3 0 C3 1.32 3 2.64 3 4 C2.01 4.495 2.01 4.495 1 5 C-0.13350534 7.01669827 -0.13350534 7.01669827 -1 9 C-1.125 2.25 -1.125 2.25 0 0 Z " fill="#838383" transform="translate(698,442)"/>
<path d="M0 0 C2 3 2 3 1.625 5.1875 C1.41875 5.785625 1.2125 6.38375 1 7 C0.67 6.34 0.34 5.68 0 5 C-0.99 5.33 -1.98 5.66 -3 6 C-2.42655063 3.13275314 -2.1385485 2.1385485 0 0 Z " fill="#A1A1A1" transform="translate(399,454)"/>
<path d="M0 0 C0.66 0.66 1.32 1.32 2 2 C2.66 1.34 3.32 0.68 4 0 C3.67 1.98 3.34 3.96 3 6 C2.01 6.33 1.02 6.66 0 7 C0 4.69 0 2.38 0 0 Z " fill="#828282" transform="translate(479,444)"/>
<path d="M0 0 C1.65 0 3.3 0 5 0 C5 0.99 5 1.98 5 3 C3.02 3 1.04 3 -1 3 C-0.67 2.01 -0.34 1.02 0 0 Z " fill="#949494" transform="translate(513,437)"/>
</svg>
